<?xml version="1.0" encoding="utf-8"?>
<!-- Generator: Adobe Illustrator 16.0.0, SVG Export Plug-In . SVG Version: 6.00 Build 0)  -->
<!DOCTYPE svg PUBLIC "-//W3C//DTD SVG 1.1//EN" "http://www.w3.org/Graphics/SVG/1.1/DTD/svg11.dtd">
<svg version="1.1" xmlns="http://www.w3.org/2000/svg" xmlns:xlink="http://www.w3.org/1999/xlink" x="0px" y="0px"
	 width="374.953px" height="374.953px" viewBox="0 0 374.953 374.953" enable-background="new 0 0 374.953 374.953"
	 xml:space="preserve">
<g id="Ellipse_1_1_" enable-background="new    ">
	<g id="Ellipse_1">
		<g>
			<circle fill="#00ACF0" cx="187.477" cy="187.477" r="185.977"/>
		</g>
	</g>
</g>
<g id="_x3C__x2F__x3E__1_" enable-background="new    ">
	<g id="_x3C__x2F__x3E_">
		<g>
			<path fill-rule="evenodd" clip-rule="evenodd" fill="#FFFFFF" d="M135.82,137.346c-3.234-5.732-7.962-12.709-11.694-16.946
				c-24.88,17.195-49.761,34.639-74.641,52.084c0,6.23,0,13.208,0.498,19.188c25.378,18.69,48.268,35.139,73.646,54.078
				c4.229-4.237,9.206-10.716,12.689-15.95c-20.899-17.692-39.311-32.646-57.474-48.096
				C97.753,166.751,114.423,154.042,135.82,137.346z M175.432,180.199c-11.043,32.444-22.261,66.516-34.458,101.182
				c7.938,2.808,15.585,4.822,22.969,6.58c9.98-28.338,24.806-71.242,35.211-101.223c10.193-29.159,25.057-71.256,34.824-98.772
				c-8.703-3.036-17.117-5.279-25.505-6.983C198.318,110.95,185.773,148.873,175.432,180.199z M325.467,172.981
				c-25.129-18.44-47.521-34.39-73.397-52.582c-3.732,4.486-8.46,10.965-11.693,16.696c20.65,16.697,38.564,30.901,56.478,45.604
				c-19.406,15.7-36.325,29.157-58.22,46.851c3.732,5.483,8.708,11.962,12.688,16.199c24.881-17.694,50.259-35.886,74.891-53.829
				C326.213,185.691,325.964,178.713,325.467,172.981z"/>
		</g>
	</g>
</g>
</svg>
